<svg width="55" height="55" viewBox="0 0 55 55" fill="none" xmlns="http://www.w3.org/2000/svg">
<g clip-path="url(#clip0_1_3998)">
<path fill-rule="evenodd" clip-rule="evenodd" d="M50.4167 27.5C50.4167 40.1564 40.1564 50.4167 27.5 50.4167C14.8435 50.4167 4.58333 40.1564 4.58333 27.5C4.58333 14.8435 14.8435 4.58333 27.5 4.58333C40.1564 4.58333 50.4167 14.8435 50.4167 27.5ZM55 27.5C55 42.6879 42.6879 55 27.5 55C12.3122 55 0 42.6879 0 27.5C0 12.3122 12.3122 0 27.5 0C42.6879 0 55 12.3122 55 27.5ZM25.2083 32.0833V16.0417H29.7917V32.0833H25.2083ZM25.2083 38.9583V34.375H29.7917V38.9583H25.2083Z" fill="#FF0404"/>
</g>
<defs>
<clipPath id="clip0_1_3998">
<rect width="55" height="55" fill="white"/>
</clipPath>
</defs>
</svg>
