<svg width="70" height="70" viewBox="0 0 70 70" fill="none" xmlns="http://www.w3.org/2000/svg">
<path d="M5.83331 35.0001C5.83331 24.0006 5.83331 18.5009 9.25039 15.0838C12.6675 11.6667 18.1672 11.6667 29.1666 11.6667H33.5416C44.541 11.6667 50.0409 11.6667 53.4578 15.0838C56.875 18.5009 56.875 24.0006 56.875 35.0001C56.875 45.9994 56.875 51.4994 53.4578 54.9162C50.0409 58.3334 44.541 58.3334 33.5416 58.3334H29.1666C18.1672 58.3334 12.6675 58.3334 9.25039 54.9162C5.83331 51.4994 5.83331 45.9994 5.83331 35.0001Z" stroke="#2CA0F3" stroke-width="4"/>
<path d="M58.3333 29.1667C61.0831 29.1667 62.4581 29.1667 63.3124 30.021C64.1666 30.8753 64.1666 32.2502 64.1666 35.0001C64.1666 37.7499 64.1666 39.1248 63.3124 39.9791C62.4581 40.8334 61.0831 40.8334 58.3333 40.8334V29.1667Z" stroke="#2CA0F3" stroke-width="4"/>
<path d="M33.5417 26.25L26.25 35H36.4583L29.1667 43.75" stroke="#2CA0F3" stroke-width="4" stroke-linecap="round" stroke-linejoin="round"/>
</svg>
