<svg width="60" height="60" viewBox="0 0 60 60" fill="none" xmlns="http://www.w3.org/2000/svg">
<path fill-rule="evenodd" clip-rule="evenodd" d="M30 6.875C17.2284 6.875 6.875 17.2284 6.875 30C6.875 42.7715 17.2284 53.125 30 53.125C42.7715 53.125 53.125 42.7715 53.125 30C53.125 17.2284 42.7715 6.875 30 6.875ZM3.125 30C3.125 15.1574 15.1574 3.125 30 3.125C44.8428 3.125 56.875 15.1574 56.875 30C56.875 44.8428 44.8428 56.875 30 56.875C15.1574 56.875 3.125 44.8428 3.125 30ZM29.87 18.125H30.13C32.3763 18.1249 34.2493 18.1249 35.7363 18.3248C37.3058 18.5358 38.7228 19 39.8613 20.1387C41 21.2773 41.4643 22.6943 41.6753 24.2638C41.8753 25.7508 41.875 27.6238 41.875 29.87V30.13C41.875 32.3763 41.8753 34.2493 41.6753 35.7363C41.4643 37.3058 41 38.7228 39.8613 39.8613C38.7228 41 37.3058 41.4643 35.7363 41.6753C34.2493 41.8753 32.3763 41.875 30.13 41.875H29.87C27.6238 41.875 25.7508 41.8753 24.2638 41.6753C22.6943 41.4643 21.2773 41 20.1387 39.8613C19 38.7228 18.5358 37.3058 18.3248 35.7363C18.1249 34.2493 18.1249 32.3763 18.125 30.13V29.87C18.1249 27.6238 18.1249 25.7508 18.3248 24.2638C18.5358 22.6943 19 21.2773 20.1387 20.1387C21.2773 19 22.6943 18.5358 24.2638 18.3248C25.7508 18.1249 27.6238 18.1249 29.87 18.125ZM24.7635 22.0414C23.6098 22.1965 23.1161 22.4645 22.7903 22.7903C22.4645 23.1161 22.1965 23.6098 22.0414 24.7635C21.879 25.971 21.875 27.59 21.875 30C21.875 32.41 21.879 34.029 22.0414 35.2365C22.1965 36.3903 22.4645 36.884 22.7903 37.2098C23.1161 37.5355 23.6098 37.8035 24.7635 37.9588C25.971 38.121 27.59 38.125 30 38.125C32.41 38.125 34.029 38.121 35.2365 37.9588C36.3903 37.8035 36.884 37.5355 37.2098 37.2098C37.5355 36.884 37.8035 36.3903 37.9588 35.2365C38.121 34.029 38.125 32.41 38.125 30C38.125 27.59 38.121 25.971 37.9588 24.7635C37.8035 23.6098 37.5355 23.1161 37.2098 22.7903C36.884 22.4645 36.3903 22.1965 35.2365 22.0414C34.029 21.879 32.41 21.875 30 21.875C27.59 21.875 25.971 21.879 24.7635 22.0414Z" fill="#FFA915"/>
</svg>
