<svg width="70" height="70" viewBox="0 0 70 70" fill="none" xmlns="http://www.w3.org/2000/svg">
<path d="M36.75 63.875H41.125C43.0579 63.875 44.625 62.3079 44.625 60.375C44.625 58.4421 43.0579 56.875 41.125 56.875H11.375C9.44213 56.875 7.875 58.4421 7.875 60.375C7.875 62.3079 9.44213 63.875 11.375 63.875H31.5" stroke="#2CA0F3" stroke-width="3.2" stroke-miterlimit="10" stroke-linecap="round" stroke-linejoin="round"/>
<path d="M12.25 56.875V11.375C12.25 9.44212 13.8171 7.875 15.75 7.875H36.75C38.6829 7.875 40.25 9.44212 40.25 11.375V56.875" stroke="#2CA0F3" stroke-width="3.2" stroke-miterlimit="10" stroke-linecap="round" stroke-linejoin="round"/>
<path d="M31.5 28.875H21C19.0671 28.875 17.5 27.3079 17.5 25.375V16.625C17.5 14.6921 19.0671 13.125 21 13.125H31.5C33.4329 13.125 35 14.6921 35 16.625V25.375C35 27.3079 33.4329 28.875 31.5 28.875Z" stroke="#2CA0F3" stroke-width="3.2" stroke-miterlimit="10" stroke-linecap="round" stroke-linejoin="round"/>
<path d="M40.25 35H48.125C50.0579 35 51.625 36.5671 51.625 38.5V45.9375C51.625 47.6289 52.9961 49 54.6875 49C56.3789 49 57.75 47.6289 57.75 45.9375V29.75" stroke="#2CA0F3" stroke-width="3.2" stroke-miterlimit="10" stroke-linecap="round" stroke-linejoin="round"/>
<path d="M53.375 27.125V26.25C53.375 24.8001 54.5501 23.625 56 23.625H59.5C60.9499 23.625 62.125 24.8001 62.125 26.25V27.125C62.125 28.5749 60.9499 29.75 59.5 29.75H56C54.5501 29.75 53.375 28.5749 53.375 27.125Z" stroke="#2CA0F3" stroke-width="3.2" stroke-miterlimit="10" stroke-linecap="round" stroke-linejoin="round"/>
<path d="M55.125 21V23.7746" stroke="#2CA0F3" stroke-width="3.2" stroke-miterlimit="10" stroke-linecap="round" stroke-linejoin="round"/>
<path d="M60.375 21V23.7746" stroke="#2CA0F3" stroke-width="3.2" stroke-miterlimit="10" stroke-linecap="round" stroke-linejoin="round"/>
</svg>
